<?xml version="1.0" encoding="utf-8"?>
<!-- Generator: Adobe Illustrator 23.0.2, SVG Export Plug-In . SVG Version: 6.00 Build 0)  -->
<svg version="1.1" id="Layer_1" xmlns="http://www.w3.org/2000/svg" xmlns:xlink="http://www.w3.org/1999/xlink" x="0px" y="0px"
	 viewBox="0 0 283.46 283.46" style="enable-background:new 0 0 283.46 283.46;" xml:space="preserve">
<style type="text/css">
	.st0{fill:#FFFFFF;}
	.st1{fill:none;stroke:#495761;stroke-width:10;stroke-miterlimit:10;}
	.st2{fill:#FFFFFF;stroke:#495761;stroke-width:10;stroke-miterlimit:10;}
	.st3{opacity:0.5;fill:#FBC3B7;}
	.st4{fill:none;stroke:#495761;stroke-width:9;stroke-miterlimit:10;}
	.st5{fill:none;stroke:#495761;stroke-width:8;stroke-linecap:round;stroke-miterlimit:10;}
	.st6{fill:none;stroke:#495761;stroke-width:5;stroke-miterlimit:10;}
</style>
<g>
	<polyline class="st0" points="108.51,150.13 125.73,165.86 229.54,51.79 213.79,35.66 108.51,150.13 	"/>
	<polygon class="st0" points="122.36,165.86 99.27,170.71 103.52,147.92 	"/>
	<path class="st1" d="M205.22,234.11H65c-13.68,0-24.77-11.09-24.77-24.77V56.45c0-13.68,11.09-24.77,24.77-24.77h140.22
		c13.68,0,24.77,11.09,24.77,24.77v152.88C229.99,223.01,218.9,234.11,205.22,234.11z"/>
	<path class="st2" d="M205.22,234.11H65c-13.68,0-24.77-11.09-24.77-24.77V56.45c0-13.68,11.09-24.77,24.77-24.77h140.22
		c13.68,0,24.77,11.09,24.77,24.77v152.88C229.99,223.01,218.9,234.11,205.22,234.11z"/>
	<path class="st3" d="M201.61,230.95H58.88c-4.7,0-8.5-3.81-8.5-8.5V71.94c0-15.42,12.5-27.93,27.93-27.93h123.31
		c15.42,0,27.93,12.5,27.93,27.93v131.08C229.54,218.45,217.03,230.95,201.61,230.95z"/>
	<path class="st1" d="M205.22,234.11H65c-13.68,0-24.77-11.09-24.77-24.77V56.45c0-13.68,11.09-24.77,24.77-24.77h140.22
		c13.68,0,24.77,11.09,24.77,24.77v152.88C229.99,223.01,218.9,234.11,205.22,234.11z"/>
	<path class="st2" d="M124.64,164.86l-18.66-17.05c-2.12-1.93-2.27-5.22-0.33-7.33L214.92,20.83c5.87-6.43,15.84-6.88,22.27-1.01
		l0.31,0.28c6.43,5.87,6.88,15.84,1.01,22.27l-111.78,122.4C126.18,165.37,125.24,165.41,124.64,164.86z"/>

		<rect x="153.2" y="37.84" transform="matrix(0.7384 0.6744 -0.6744 0.7384 113.7402 -82.5337)" class="st3" width="20.1" height="134.99"/>

		<rect x="161.94" y="41.23" transform="matrix(0.7384 0.6744 -0.6744 0.7384 116.9955 -84.1492)" class="st3" width="10.05" height="134.99"/>
	<path class="st1" d="M123.08,163.43l-18.19-16.62c-1.51-1.38-1.62-3.73-0.24-5.24L215.92,19.74c5.32-5.82,14.35-6.23,20.18-0.91
		l2.49,2.28c5.82,5.32,6.23,14.35,0.91,20.18L128.15,163.2C126.82,164.67,124.54,164.77,123.08,163.43z"/>
	<polyline class="st4" points="125.73,165.86 97.15,171.27 103.02,143.99 	"/>
	<line class="st5" x1="97.15" y1="170.71" x2="91.05" y2="177.65"/>
	<line class="st6" x1="195.95" y1="41.6" x2="218.73" y2="64.03"/>
	<line class="st6" x1="207.34" y1="29.13" x2="229.99" y2="51.79"/>
</g>
</svg>
